<svg xmlns="http://www.w3.org/2000/svg" xmlns:xlink="http://www.w3.org/1999/xlink" viewBox="0 0 656.04 70.87"><defs><style>.a{fill:url(#a);}.b{fill:url(#b);}.c{fill:url(#c);}.d{fill:url(#d);}.e{fill:url(#e);}.f{fill:url(#f);}.g{fill:url(#g);}.h{fill:url(#h);}.i{fill:#140087;}</style><linearGradient id="a" x1="95.2" y1="327.17" x2="151.87" y2="327.17" gradientUnits="userSpaceOnUse"><stop offset="0" stop-color="red"/><stop offset="1" stop-color="#ff4b00"/></linearGradient><linearGradient id="b" x1="104.74" y1="284.62" x2="104.74" y2="333.76" gradientUnits="userSpaceOnUse"><stop offset="0" stop-color="#c80000"/><stop offset="1" stop-color="red"/></linearGradient><linearGradient id="c" x1="11.72" y1="53.15" x2="70.43" y2="53.15" xlink:href="#b"/><linearGradient id="d" x1="-0.19" y1="35.43" x2="23.29" y2="35.43" xlink:href="#a"/><linearGradient id="e" x1="-0.63" y1="11.81" x2="47.19" y2="11.81" xlink:href="#b"/><linearGradient id="f" x1="116.85" y1="274.02" x2="161.61" y2="274.02" xlink:href="#a"/><linearGradient id="g" x1="71.59" y1="35.43" x2="46.99" y2="35.43" xlink:href="#a"/><linearGradient id="h" x1="163.64" y1="286.69" x2="140.11" y2="286.69" xlink:href="#b"/></defs><title>tvvlaanderen</title><path class="a" d="M104.74,321.26,94.65,331.34a5.89,5.89,0,0,0,4.17,1.73h41.34L152,321.26Z" transform="translate(-92.92 -262.21)"/><path class="b" d="M116.55,309.45h0L92.92,285.83v41.34a5.89,5.89,0,0,0,1.73,4.17l10.08-10.08,11.81-11.81h0Z" transform="translate(-92.92 -262.21)"/><polygon class="c" points="23.62 47.24 23.62 47.24 11.81 59.05 59.05 59.05 70.87 47.24 23.62 47.24"/><polygon class="d" points="23.62 23.62 0 23.62 23.62 47.24 23.62 23.62"/><polygon class="e" points="47.24 23.62 23.62 0 0 23.62 47.24 23.62"/><path class="f" d="M162.06,263.94a5.89,5.89,0,0,0-4.17-1.73H116.55l23.62,23.62Z" transform="translate(-92.92 -262.21)"/><polygon class="g" points="47.24 47.24 70.87 47.24 70.87 23.62 47.24 47.24"/><path class="h" d="M163.79,268.11a5.89,5.89,0,0,0-1.73-4.17l-21.89,21.89h0v23.62l23.62-23.62h0Z" transform="translate(-92.92 -262.21)"/><path class="i" d="M200.95,297H187.38v-11.1h40.1v5.25c0,4-1.86,5.85-5.85,5.85h-8v36.11H200.95Z" transform="translate(-92.92 -262.21)"/><path class="i" d="M229.67,285.86h14.1l10.31,31h.13l8.18-25.4c1.2-3.79,3.66-5.59,7.65-5.59h8.11l-18,47.21H248Z" transform="translate(-92.92 -262.21)"/><path class="i" d="M295.64,285.86h14.1l10.31,31h.13l8.18-25.4c1.2-3.79,3.66-5.59,7.65-5.59h8.11l-18,47.21H314Z" transform="translate(-92.92 -262.21)"/><path class="i" d="M380.45,322v11.1H347.07V285.86h6.78c4,0,5.85,1.86,5.85,5.85V322Z" transform="translate(-92.92 -262.21)"/><path class="i" d="M418.45,333.07l-2.73-6.85h-8l-6.52-8.64-5,15.49h-13.7l17.82-47.21h7.31c4,0,6.52,1.73,8,5.45l16.22,41.76Zm-6-17-5.45-16h-.2l-5.19,16Z" transform="translate(-92.92 -262.21)"/><path class="i" d="M469.19,333.07l-2.73-6.85h-8l-6.52-8.64-5,15.49h-13.7L451,285.86h7.31c4,0,6.52,1.73,8,5.45l16.22,41.76Zm-6-17-5.45-16h-.2l-5.19,16Z" transform="translate(-92.92 -262.21)"/><path class="i" d="M528.5,285.86v47.21H516.27l-18.82-27.6v27.6h-11.7V285.86h12.1l19,27.86V291.85c0-4,1.86-5.85,5.85-5.92Z" transform="translate(-92.92 -262.21)"/><path class="i" d="M534.46,285.86h17.22c15.29,0,26.13,9.78,26.13,23.61S567,333.07,551.94,333.07H534.46Zm17.09,35.84c8.64,0,13.37-4.19,13.37-12s-4.85-12.5-13.63-12.5h-4.19V321.7Z" transform="translate(-92.92 -262.21)"/><path class="i" d="M616.87,321.7v11.37H590.34l-8-11.3V285.86H615.8v11.37H594.73v6.72h14.7v11h-14.7v6.78Z" transform="translate(-92.92 -262.21)"/><path class="i" d="M640.05,317.65h-4.79v15.43h-12.5V285.86h21c10.17,0,17.29,6.65,17.29,16.16,0,6.12-2.93,10.64-8.51,13.23l12.7,17.82h-14.7Zm-4.79-9.38h5.65c4.72,0,7.25-1.93,7.25-5.72,0-3.59-2.19-5.59-6.25-5.59h-6.65Z" transform="translate(-92.92 -262.21)"/><path class="i" d="M700.9,321.7v11.37H674.37l-8-11.3V285.86h33.51v11.37H678.75v6.72h14.7v11h-14.7v6.78Z" transform="translate(-92.92 -262.21)"/><path class="i" d="M749,285.86v47.21H736.73l-18.82-27.6v27.6h-11.7V285.86h12.1l19,27.86V291.85c0-4,1.86-5.85,5.85-5.92Z" transform="translate(-92.92 -262.21)"/></svg>